<svg id="header-logo"
  xmlns="http://www.w3.org/2000/svg" viewBox="0 0 199.05 124.26">
  <defs>
    
  </defs>
  <g id="Layer_2" data-name="Layer 2">
    <g id="Layer_1-2" data-name="Layer 1">
      <path class="cls-1" d="M0,14.17H9.88V1.5c3.45-1,6.68.27,10-1.5V13.5c3.27,1.43,6.5.18,9.84,1,.84,2.92.24,6,.26,9.08-3.29,1-6.33.12-9.24.75-1.16,1.06-.68,2.48-.69,3.74,0,6.33-.14,12.65,0,19C20.36,57,30.15,64,37.71,61.56c.51,3.31.23,6.59.18,10-2.72,1.43-5.57.88-8.22.27A25.71,25.71,0,0,1,10,47.26c-.11-7.46,0-14.94,0-22.65-3.44-.9-6.74-.33-10-.44Z"/>
      <path class="cls-2" d="M195.11,71.42c-.47.39-.59.58-.73.59-11.12.82-9.21-.12-9.25-8.19,0-8.48.16-17-.08-25.45a15.47,15.47,0,0,0-21.64-13.93c-5.35,2.32-9.2,6.47-9.41,12.47-.37,10.3-.1,20.62,0,30.93a22.85,22.85,0,0,0,.69,3.86c-1.57,1-3.28.49-4.89.5-5,0-5.56-.4-5.6-5.24-.07-9.31-.31-18.64.05-27.94C145,19.5,163.9,8.9,179.93,16.3c8.23,3.79,13,10.5,14.18,19.67a89.07,89.07,0,0,1,.56,10.44C194.76,54.72,194.33,63,195.11,71.42Z"/>
      <path class="cls-3" d="M96.23,71.78C86,72.89,86,72.89,86,63.65c0-8.16,0-16.31,0-24.47A15.26,15.26,0,0,0,77.52,25c-5.66-3.05-11.22-2.38-16.47,1.14S54.32,35,54.17,40.82c-.13,5.16.06,10.33-.05,15.49a78.13,78.13,0,0,0,1.07,15.13c-.42.29-.55.46-.7.48-9,1.25-9.42.91-9.42-8,0-8.16,0-16.32,0-24.48.08-13.41,9.37-23.4,21.19-25.19,13.35-2,24.71,5.89,28.23,19A19.28,19.28,0,0,1,95,38.2c0,5.16,0,10.32,0,15.48C95.15,59.65,94.48,65.65,96.23,71.78Z"/>
      <path class="cls-4" d="M109,24.24H99.54c-1-3.36-.52-6.42-.42-9.84h9.21c1.45-4.42,0-8.81,1-13.08,3.1-.63,6.16.29,9.19-1.11,1.26,4.57-.06,9.08.85,13.66,3,.83,6.22-.08,9.5.59v9c-3,1.47-6.29.07-9.69,1.1,0,8.07-.52,16.21.16,24.26a14.79,14.79,0,0,0,17.48,13V72c-9,1.28-16-2.22-21.7-8.62A24.22,24.22,0,0,1,109,46.94Z"/>
      <path class="cls-3" d="M13.67,122.84a21.75,21.75,0,0,1-6.75,0c-1.35-1.07-1-2.49-1-3.77,0-5.16.07-10.32,0-15.48C5.77,97,8.37,91.9,14.22,88.85s11.56-2,16.65,2.26a14.92,14.92,0,0,0,1.31.85c1.44,0,2.18-1.34,3.22-2,4.86-3.19,9.82-3.84,15.05-1.09S58.73,96,58.92,102c.23,6.8.06,13.62.06,20.53-2.11,1-4.23.52-6.19.41-1.32-1.19-.93-2.6-.95-3.88,0-4.66,0-9.32,0-14,0-3-.52-6-2.82-8.25a7.25,7.25,0,0,0-7.48-1.49,7.27,7.27,0,0,0-5.3,7.13c-.2,6.63-.52,13.28.33,20.21-2.22,1-4.6.15-7.19.38-1.05-5.48-.32-10.61-.51-15.7-.09-2.32,0-4.64-.72-6.91-1.23-3.62-3.31-5.33-6.86-5.44-3.76-.12-6.22,1.62-7.48,5.29a7.85,7.85,0,0,0-.63,2.39C13.23,109.3,12.59,116,13.67,122.84Z"/>
      <path class="cls-3" d="M126.82,123c0-6.11-.06-11.43,0-16.74a18.71,18.71,0,0,0-.9-6.38A6.78,6.78,0,0,0,119.2,95a7,7,0,0,0-7.29,4.87,8.33,8.33,0,0,0-.76,2.87c.06,6.62-.52,13.25.44,20-2.25.66-4.53.18-6.44.3-1.59-1.33-1.21-2.75-1.22-4,0-5.33,0-10.65,0-16,0-6.42,2.7-11.29,8.36-14.21s11.24-2.06,16.23,2c.51.42,1.1.75,1.83,1.24,1.17-.8,2.35-1.63,3.56-2.43,10.5-7,22.6,1.62,23,11.89.28,7,.06,13.93.06,21-2.16.83-4.26.46-6.71.33-.9-5.21-.23-10.33-.41-15.42-.09-2.32.06-4.63-.7-6.9-1.29-3.9-3.43-5.63-7.24-5.6s-6,1.83-7.23,5.62a6.48,6.48,0,0,0-.52,1.91c.1,6.63-.57,13.28.44,20.15C132.28,123.55,129.9,122.86,126.82,123Z"/>
      <path class="cls-5" d="M198,98.93h-6.89a9.67,9.67,0,0,0-12.13-4.75,3,3,0,0,0-2.22,2.44,2.63,2.63,0,0,0,2,3c2.84.9,5.73,1.64,8.6,2.43a40.23,40.23,0,0,1,4.79,1.3c3.73,1.54,6.55,3.89,6.89,8.32.37,4.75-1.79,8.32-5.84,10.13-6.87,3.08-13.86,3.08-20.38-1.28a10,10,0,0,1-4.77-9.83c2.3-1,4.63-.45,6.85-.62,2.72,6.22,7.61,8.38,13.47,6,1.41-.57,2.78-1.19,2.75-3.09s-1.21-2.68-2.7-3.14c-2.22-.67-4.45-1.29-6.72-1.75a33.44,33.44,0,0,1-8.44-2.89c-6.86-3.45-5.52-13.34-.21-16,6.64-3.35,13.49-3.45,20,.12C196.46,91.23,197.9,94.65,198,98.93Z"/>
      <path class="cls-5" d="M99.11,105.7a17.38,17.38,0,0,1-18.2,18.54c-10.27-.42-18.1-8.22-17.65-18.85C63.74,94,70.1,86.56,81.49,86.55,92.56,86.53,99.79,94.88,99.11,105.7Zm-6.91-.35c.08-4.18-.87-7.93-4.62-10.36A10.61,10.61,0,0,0,75,95.11c-4.34,3-5.29,7.58-4.66,12.31.58,4.4,2.67,8.28,7.37,9.72C84.71,119.28,92.57,115.28,92.2,105.35Z"/>
      <path class="cls-6" d="M171,77.42c-.7,2.78-2.17,4.83-3.33,7-2.08,3.85-2.17,3.81-7.23,3.14a13.71,13.71,0,0,1,1.32-4.64C164,77.05,162.58,76.51,171,77.42Z"/>
    </g>
  </g>
</svg>